<svg xmlns="http://www.w3.org/2000/svg" viewBox="0 0 500 500" width="500" height="500" role="img" aria-labelledby="title desc">
  <title id="title">APW Logo</title>
  <desc id="desc">Akademie fuer psychologischen Wissenstransfer Logo</desc>
  <rect width="500" height="500" fill="#0DACA0"/>
  <text x="12" y="298" font-family="Georgia, 'Times New Roman', serif" font-size="300" font-weight="bold" fill="white">A</text>
  <g transform="translate(358, 148)">
    <path d="M -82,5 Q -58,-32 -16,-10 Q -6,-5 0,-8 Q 6,-5 16,-10 Q 58,-32 82,5 Q 56,16 26,11 Q 12,8 0,10 Q -12,8 -26,11 Q -56,16 -82,5 Z" fill="white"/>
    <path d="M -78,9 Q -96,18 -90,28 Q -80,20 -68,14 Z" fill="white"/>
    <path d="M 2,-7 Q 12,-18 24,-27" stroke="white" stroke-width="13" fill="none" stroke-linecap="round"/>
    <circle cx="30" cy="-32" r="16" fill="white"/>
    <path d="M 43,-37 L 62,-40 L 44,-24 Z" fill="white"/>
    <circle cx="27" cy="-35" r="3.5" fill="#0DACA0"/>
  </g>
  <text x="152" y="490" font-family="Georgia, 'Times New Roman', serif" font-size="238" font-weight="bold" fill="white">PW</text>
</svg>
